<svg width="148" height="29" viewBox="0 0 148 29" fill="none" xmlns="http://www.w3.org/2000/svg">
<g clip-path="url(#clip0_8231_2324)">
<path d="M49.2024 19.6171C48.8918 19.383 48.6641 19 48.6641 18.5319C48.6641 17.7979 49.2438 17.2234 49.9684 17.2234C50.3514 17.2234 50.5999 17.3405 50.7758 17.4788C52.0802 18.5426 53.4673 19.1383 55.165 19.1383C56.8627 19.1383 57.9393 18.3085 57.9393 17.1064V17.0639C57.9393 15.9149 57.3078 15.2873 54.399 14.5958C51.0553 13.766 49.1713 12.7553 49.1713 9.77663V9.73407C49.1713 6.96812 51.4176 5.05322 54.5232 5.05322C56.5004 5.05322 58.0842 5.58514 59.5024 6.55322C59.813 6.73407 60.1028 7.12769 60.1028 7.68088C60.1028 8.41492 59.5231 8.98939 58.7985 8.98939C58.5294 8.98939 58.3016 8.91492 58.0842 8.77663C56.8731 7.96812 55.7137 7.55322 54.4714 7.55322C52.8566 7.55322 51.9145 8.40429 51.9145 9.46812V9.51067C51.9145 10.7553 52.6288 11.3085 55.6619 12.0426C58.9745 12.8724 60.6825 14.0958 60.6825 16.766V16.8085C60.6825 19.8298 58.3741 21.6277 55.0822 21.6277C52.9497 21.6277 50.9311 20.9362 49.192 19.5958L49.2024 19.6171Z" fill="#042063"/>
<path d="M62.9704 18.0532V11.6489H62.5252C61.8731 11.6489 61.3555 11.117 61.3555 10.4468C61.3555 9.77659 61.8731 9.24468 62.5252 9.24468H62.9704V7.17021C62.9704 6.41489 63.5708 5.78723 64.3368 5.78723C65.1028 5.78723 65.6825 6.40425 65.6825 7.17021V9.24468H67.815C68.4672 9.24468 69.0055 9.77659 69.0055 10.4468C69.0055 11.117 68.4672 11.6489 67.815 11.6489H65.6825V17.617C65.6825 18.7021 66.2208 19.1383 67.1421 19.1383C67.4527 19.1383 67.7218 19.0638 67.815 19.0638C68.4154 19.0638 68.9537 19.5745 68.9537 20.2128C68.9537 20.7234 68.6224 21.1383 68.2394 21.2979C67.6597 21.5106 67.1007 21.617 66.3761 21.617C64.3782 21.617 62.9704 20.7234 62.9704 18.0425V18.0532Z" fill="#042063"/>
<path d="M81.0128 20.149C81.0128 20.9043 80.4124 21.532 79.6463 21.532C78.8803 21.532 78.2799 20.9362 78.2799 20.149V19.532C77.5138 20.6809 76.4166 21.6703 74.5843 21.6703C71.9135 21.6703 70.3711 19.8298 70.3711 16.9894V10.5213C70.3711 9.73409 70.9715 9.11707 71.7168 9.11707C72.4622 9.11707 73.0833 9.73409 73.0833 10.5213V16.1596C73.0833 18.0532 74.0046 19.1064 75.6195 19.1064C77.2344 19.1064 78.2902 18 78.2902 16.1171V10.5213C78.2902 9.73409 78.8906 9.11707 79.6567 9.11707C80.4227 9.11707 81.0231 9.73409 81.0231 10.5213V20.149H81.0128Z" fill="#042063"/>
<path d="M94.9038 20.149C94.9038 20.9362 94.3034 21.5319 93.5581 21.5319C92.8128 21.5319 92.1916 20.9362 92.1916 20.149V19.3936C91.3221 20.6596 90.0799 21.6702 88.1544 21.6702C85.3801 21.6702 82.668 19.3936 82.668 15.3617V15.3192C82.668 11.2873 85.3387 9.01066 88.1544 9.01066C90.1006 9.01066 91.3324 10 92.1916 11.149V5.87236C92.1916 5.08512 92.7921 4.48938 93.5374 4.48938C94.2827 4.48938 94.9038 5.08512 94.9038 5.87236V20.149ZM85.4008 15.3085V15.3511C85.4008 17.7021 86.9743 19.2447 88.8066 19.2447C90.6389 19.2447 92.2331 17.6809 92.2331 15.3511V15.3085C92.2331 12.9575 90.6182 11.4149 88.8066 11.4149C86.995 11.4149 85.4008 12.8936 85.4008 15.3085Z" fill="#042063"/>
<path d="M97.4619 24.8192C97.0582 24.6809 96.6131 24.3405 96.6131 23.6703C96.6131 23 97.1307 22.5213 97.7104 22.5213C97.9381 22.5213 98.0727 22.5639 98.2073 22.6171C98.5178 22.7128 98.7663 22.7766 99.1493 22.7766C99.9567 22.7766 100.381 22.4362 100.826 21.4894L100.919 21.2341L96.5303 11.149C96.4371 10.9469 96.375 10.6703 96.375 10.4788C96.375 9.69153 96.9547 9.11707 97.7207 9.11707C98.4143 9.11707 98.7973 9.53196 99.0458 10.1809L102.224 18.266L105.184 10.1809C105.412 9.60643 105.785 9.11707 106.489 9.11707C107.193 9.11707 107.793 9.69153 107.793 10.4256C107.793 10.6596 107.721 10.9575 107.679 11.0958L103.352 21.7554C102.348 24.2447 101.271 25.1596 99.3667 25.1596C98.6006 25.1596 98.0416 25.0426 97.4826 24.8192H97.4619Z" fill="#042063"/>
<path d="M109.605 10.149C109.605 9.80853 109.833 9.57449 110.144 9.57449C110.454 9.57449 110.703 9.80853 110.703 10.149V12.2873C111.686 10.7447 113.146 9.383 115.413 9.383C118.166 9.383 120.972 11.6596 120.972 15.4894V15.5319C120.972 19.3511 118.166 21.6809 115.413 21.6809C113.125 21.6809 111.645 20.3404 110.703 18.8724V24.6064C110.703 24.9468 110.475 25.1809 110.164 25.1809C109.854 25.1809 109.605 24.9468 109.605 24.6064V10.1383V10.149ZM119.781 15.5851V15.5426C119.781 12.4575 117.701 10.4787 115.299 10.4787C112.897 10.4787 110.641 12.5319 110.641 15.5213V15.5638C110.641 18.5851 112.928 20.6064 115.299 20.6064C117.67 20.6064 119.781 18.7447 119.781 15.5851Z" fill="#4D94CE"/>
<path d="M123.434 5.08515C123.434 4.766 123.661 4.51068 123.972 4.51068C124.282 4.51068 124.531 4.766 124.531 5.08515V20.9362C124.531 21.2766 124.303 21.5107 123.993 21.5107C123.682 21.5107 123.434 21.2766 123.434 20.9362V5.08515Z" fill="#4D94CE"/>
<path d="M137.308 20.9255C137.308 21.2447 137.081 21.5 136.77 21.5C136.46 21.5 136.211 21.266 136.211 20.9255V19.2234C135.445 20.6064 134.172 21.6915 132.091 21.6915C129.203 21.6915 127.516 19.6596 127.516 16.8511V10.1489C127.516 9.80851 127.743 9.57446 128.054 9.57446C128.364 9.57446 128.613 9.80851 128.613 10.1489V16.6489C128.613 19.0638 129.938 20.6596 132.246 20.6596C134.555 20.6596 136.211 18.9042 136.211 16.4681V10.1596C136.211 9.81914 136.439 9.5851 136.749 9.5851C137.06 9.5851 137.308 9.81914 137.308 10.1596V20.9362V20.9255Z" fill="#4D94CE"/>
<path d="M139.615 20.1277C139.521 20.0638 139.418 19.8724 139.418 19.6915C139.418 19.3936 139.666 19.1383 139.956 19.1383C140.091 19.1383 140.225 19.1809 140.319 19.2553C141.509 20.1277 142.762 20.5958 144.128 20.5958C145.67 20.5958 146.882 19.7234 146.882 18.3617V18.3192C146.882 16.9362 145.443 16.4255 143.859 15.9681C141.996 15.4149 139.936 14.8404 139.936 12.7447V12.7021C139.936 10.8085 141.478 9.45746 143.704 9.45746C144.936 9.45746 146.302 9.87235 147.399 10.5213C147.534 10.617 147.689 10.7766 147.689 11.0319C147.689 11.3298 147.441 11.5851 147.151 11.5851C147.016 11.5851 146.902 11.5426 146.84 11.4894C145.857 10.8936 144.76 10.5213 143.662 10.5213C142.089 10.5213 141.064 11.3936 141.064 12.5745V12.617C141.064 13.9255 142.606 14.4149 144.242 14.8936C146.085 15.4255 148.01 16.117 148.01 18.1915V18.2341C148.01 20.3298 146.261 21.6702 144.066 21.6702C142.524 21.6702 140.795 21.0532 139.625 20.1489L139.615 20.1277Z" fill="#4D94CE"/>
<path d="M36.1165 21.0426C37.0171 20.3617 37.2138 19.0532 36.5512 18.1277C36.3339 17.8298 36.0544 17.5958 35.7231 17.4468V14.5851L34.0979 15.2979V17.4468C33.073 17.9043 32.5968 19.1277 33.042 20.1809C33.1869 20.5213 33.4146 20.8085 33.7045 21.032C33.1869 21.4256 32.8763 22.0426 32.8763 22.7022V24.7979C32.8763 25.2554 33.2387 25.6383 33.6941 25.6383H36.1372C36.5823 25.6383 36.955 25.266 36.955 24.7979V22.7022C36.955 22.0426 36.6444 21.4149 36.1268 21.032L36.1165 21.0426Z" fill="#042063"/>
<path d="M31.6452 16.3724V22.5639C31.6452 24.0319 30.9103 25.3937 29.6888 26.149C23.3534 29.9575 15.5068 29.9575 9.17144 26.149C7.94993 25.3937 7.2046 24.0319 7.21495 22.5639V16.3724L17.2045 20.7128C18.6227 21.3298 20.2272 21.3298 21.6454 20.7128L31.6349 16.3724H31.6452Z" fill="#042063"/>
<path d="M37.379 7.43571L21.0231 0.329325C20.0086 -0.106845 18.8596 -0.106845 17.8451 0.329325L1.48921 7.43571C0.246991 7.97826 -0.332711 9.44635 0.195232 10.7229C0.443675 11.3293 0.909507 11.7974 1.48921 12.0527L17.8451 19.1697C18.8596 19.6059 20.0086 19.6059 21.0231 19.1697L37.379 12.0527C38.6212 11.5102 39.2009 10.0421 38.673 8.76549C38.4245 8.15911 37.9587 7.69103 37.379 7.43571Z" fill="#042063"/>
</g>
<defs>
<clipPath id="clip0_8231_2324">
<rect width="148" height="29" fill="white"/>
</clipPath>
</defs>
</svg>
